<svg enable-background="new 0 0 1400 980" height="980" viewBox="0 0 1400 980" width="1400" xmlns="http://www.w3.org/2000/svg"><path d="m0 0h1400v980h-1400z" fill="none" pointer-events="none"/><path d="m652 46c27.6 0 50 22.4 50 50s-22.4 50-50 50-50-22.4-50-50 22.4-50 50-50z" fill="#ffda44" transform="matrix(9.77325659 0 0 -9.77325659 -5671.720542 1429.487758)"/><path d="m95.108 455.112h321.784c20.049-16.221 37.603-35.403 51.987-56.889h-425.756c14.384 21.486 31.936 40.667 51.985 56.889z" fill="#d80028" transform="matrix(-1.91405749 -.00371535 .00371535 -1.91405749 1189.695603 980.859845)"/><path d="m14.588 341.335h482.825c6.403-18.115 10.825-37.164 13.007-56.89h-508.838c2.18 19.727 6.602 38.776 13.006 56.89z" fill="#d80028" transform="matrix(-1.91405869 -.00048837 .00048837 -1.91405869 1189.455767 979.820109)"/><g fill="#d80027" transform="matrix(1.91405892 0 0 1.91405892 209.163269 0)"><path d="m14.588 341.335h482.825c6.403-18.115 10.825-37.164 13.007-56.89h-508.838c2.18 19.727 6.602 38.776 13.006 56.89z"/><path d="m95.108 455.112h321.784c20.049-16.221 37.603-35.403 51.987-56.889h-425.756c14.384 21.486 31.936 40.667 51.985 56.889z"/><path d="m314.3742981 447.25830078v-.43716431l-45.90188599-46.33901977" fill="#d80027"/></g></svg>